HIERARCHY
ROOT Hips
{
  OFFSET 74.0196 97.4445 -31.1285
  CHANNELS 6 Xposition Yposition Zposition Zrotation Xrotation Yrotation
  JOINT RightUpLeg
  {
    OFFSET -8.9458 -8.66707 0.101652
    CHANNELS 3 Zrotation Xrotation Yrotation
    JOINT RightLeg
    {
      OFFSET -2.94875e-013 -44.4227 1.3727
      CHANNELS 3 Zrotation Xrotation Yrotation
      JOINT RightFoot
      {
        OFFSET 0.253549 -42.0924 -1.46059
        CHANNELS 3 Zrotation Xrotation Yrotation
        JOINT RightToes
        {
          OFFSET 0.04 -4.41509 8.4991
          CHANNELS 3 Zrotation Xrotation Yrotation
          End Site
          {
            OFFSET -0.08 -0.137448 9.77979
          }
        }
      }
    }
  }
  JOINT Spine
  {
    OFFSET -5.68434e-014 11.8905 -6.39488e-014
    CHANNELS 3 Zrotation Xrotation Yrotation
    JOINT Spine1
    {
      OFFSET 5.68434e-014 25.6574 0.127663
      CHANNELS 3 Zrotation Xrotation Yrotation
      JOINT HEad
      {
        OFFSET 4.26326e-014 8.73416 0.011341
        CHANNELS 3 Zrotation Xrotation Yrotation
        End Site
        {
          OFFSET -0.29 12.7742 2.51395
        }
      }
      JOINT LeftShoulder1
      {
        OFFSET 8.99 -0.362252 -0.22
        CHANNELS 3 Zrotation Xrotation Yrotation
        JOINT LeftArm
        {
          OFFSET 10.2827 -0.00338 0.322123
          CHANNELS 3 Zrotation Xrotation Yrotation
          JOINT LeftForeArm
          {
            OFFSET 32.7669 0.099144 -1.42434
            CHANNELS 3 Zrotation Xrotation Yrotation
            JOINT LeftHand
            {
              OFFSET 27.5643 0.085362 1.02216
              CHANNELS 3 Zrotation Xrotation Yrotation
              End Site
              {
                OFFSET 16.7443 -0.6 1.50291
              }
            }
          }
        }
      }
      JOINT RightShoulder
      {
        OFFSET -8.99 -0.362252 -0.22
        CHANNELS 3 Zrotation Xrotation Yrotation
        JOINT RightArm
        {
          OFFSET -10.2827 -0.00338 0.322123
          CHANNELS 3 Zrotation Xrotation Yrotation
          JOINT RightForeArm
          {
            OFFSET -32.8971 0.099144 -1.42434
            CHANNELS 3 Zrotation Xrotation Yrotation
            JOINT RightHand
            {
              OFFSET -27.4921 0.085362 1.02216
              CHANNELS 3 Zrotation Xrotation Yrotation
              End Site
              {
                OFFSET -16.6312 -0.6 1.50291
              }
            }
          }
        }
      }
    }
  }
  JOINT LeftUpLeg
  {
    OFFSET 8.9458 -8.66707 0.101652
    CHANNELS 3 Zrotation Xrotation Yrotation
    JOINT LeftLeg
    {
      OFFSET 7.10543e-014 -44.4227 1.3727
      CHANNELS 3 Zrotation Xrotation Yrotation
      JOINT LeftFoot
      {
        OFFSET -0.253549 -42.0924 -1.46059
        CHANNELS 3 Zrotation Xrotation Yrotation
        JOINT LeftToes
        {
          OFFSET -0.04 -4.41509 8.4991
          CHANNELS 3 Zrotation Xrotation Yrotation
          End Site
          {
            OFFSET 0.08 -0.047448 9.77979
          }
        }
      }
    }
  }
}
MOTION
Frames:	21
Frame Time:	0.0166667
-7.00294 80.7001 -66.0269 -1.97914 3.27919 -163.881 -29.1379 -28.0161 7.43729 6.6473 52.8942 -13.7329 11.9125 26.277 -3.48221 -36.1341 -65.4944 -21.7172 2.78004 8.94563 2.12644 -6.68696 17.391 5.93657 20.8691 -4.22584 -36.1405 -5.03302e-021 -3.88251e-019 1.21329e-020 -61.2954 6.14516 -47.7921 -12.6981 38.8921 -108.149 6.54677 9.62745 -1.04006 13.2743 -0.700447 -7.01686 -1.25857 -67.1841 -6.65788 -7.66918 36.8492 122.782 -12.6562 9.20046 2.46562 28.8546 -21.0035 -7.52119 -13.3418 51.2725 2.25995 -18.313 21.8263 4.58233 53.8418 -59.7691 34.9812 
-7.06014 80.7163 -66.6436 -1.97869 3.23658 -167.329 -27.2556 -29.2485 8.4218 2.83875 51.9153 -11.2832 12.2623 31.0503 -4.07937 -42.1246 -71.5576 -25.3251 2.15094 8.814 2.32839 -7.66581 16.8818 6.45986 20.863 -3.53179 -35.209 -5.03302e-021 -3.88251e-019 1.21329e-020 -62.0698 5.64359 -50.0519 -12.5309 39.5404 -109.188 6.54677 9.62745 -1.04006 12.5672 -0.351078 -4.97024 16.3751 -68.5525 6.93518 -7.2219 38.3705 127.294 -11.4866 9.22819 2.90961 28.5212 -18.3165 -8.72409 -13.7984 50.5127 3.67882 -17.1784 21.6119 4.2541 55.1657 -57.4256 38.9514 
-7.29254 81.0007 -67.3524 -1.64102 3.16771 -171.504 -25.4323 -30.6897 9.27566 0.489717 50.4703 -9.33758 12.4671 34.6221 -4.53018 -45.7982 -75.2595 -27.354 1.71897 8.67321 2.41899 -8.22865 16.3575 6.68719 20.2974 -3.17029 -32.9981 -5.03302e-021 -3.88251e-019 1.21329e-020 -63.1083 4.35697 -51.6022 -12.5103 40.1384 -109.851 6.54677 9.62745 -1.04006 12.5597 -0.172607 -3.81543 35.5686 -66.8018 21.125 -7.07115 39.7558 132.218 -8.68592 9.5498 0.790347 27.7685 -15.475 -10.2034 -13.734 50.0195 5.28679 -15.9505 22.6824 4.08012 57.2901 -54.947 44.0415 
-7.68934 81.5159 -68.1637 -0.969729 3.10252 -176.237 -23.6474 -32.2384 9.89539 -0.297434 48.739 -8.02879 12.3136 36.9623 -4.72192 -45.5942 -76.7728 -26.3111 1.54434 8.54177 2.36166 -8.31468 15.8735 6.55677 19.2738 -2.91122 -29.6489 -5.03302e-021 -3.88251e-019 1.21329e-020 -64.2768 2.19368 -52.4859 -12.6718 40.6864 -110.114 6.54677 9.62745 -1.04006 13.2536 -0.147152 -3.57873 50.188 -61.9296 30.3689 -7.33376 40.5761 136.555 -5.52548 9.84148 -2.89324 26.7518 -12.5392 -11.7887 -13.2959 49.6635 6.99144 -14.8862 25.0395 4.09124 59.6086 -52.5322 49.2826 
-8.2044 82.1856 -69.0963 -0.0209526 3.03598 178.554 -21.8414 -33.794 10.1431 0.139866 46.8337 -7.22908 11.6882 38.2139 -4.60156 -41.853 -76.3517 -22.4797 1.56582 8.41982 2.12411 -7.94321 15.4456 6.01547 17.8886 -2.44937 -25.3124 -5.03302e-021 -3.88251e-019 1.21329e-020 -65.5032 -0.91445 -52.8126 -13.0321 41.1623 -109.892 6.54677 9.62745 -1.04006 14.455 -0.247323 -4.05124 58.9286 -55.3334 33.8879 -7.98252 40.6482 139.438 -3.62013 9.95245 -6.4158 25.6351 -9.44644 -13.3687 -12.7316 49.2677 8.77257 -14.1616 28.4169 4.28807 61.8068 -50.5272 53.9015 
-8.77478 82.9009 -70.1671 1.10272 2.93465 172.916 -19.9391 -35.2546 9.8661 1.15924 44.8568 -6.58112 10.7227 38.5673 -4.2416 -36.4874 -74.4238 -17.5397 1.66232 8.28276 1.67987 -7.18957 15.0461 5.02486 16.2068 -1.51917 -20.1502 -5.03302e-021 -3.88251e-019 1.21329e-020 -66.7398 -4.94459 -52.7856 -13.5765 41.4788 -108.986 6.54677 9.62745 -1.04006 15.8447 -0.430458 -4.89366 63.6211 -48.742 33.9106 -8.86628 40.2 140.486 -3.78341 10.0077 -8.40751 24.4993 -6.11478 -14.8372 -12.2394 48.7214 10.6252 -13.8388 32.2961 4.64544 63.8847 -49.337 57.4294 
-9.34222 83.5381 -71.3735 2.27311 2.75416 166.95 -17.8721 -36.5402 8.97043 2.03409 42.9759 -5.6215 9.80273 38.2019 -3.83398 -30.7707 -71.6435 -12.3784 1.74111 8.09795 1.00846 -6.15792 14.6288 3.56658 14.2585 0.00929938 -14.35 -5.03302e-021 -3.88251e-019 1.21329e-020 -67.9279 -9.74443 -52.725 -14.2402 41.4483 -107.065 6.54677 9.62745 -1.04006 17.0904 -0.63474 -5.76129 65.7455 -43.0691 32.3076 -9.83512 39.3687 139.888 -5.35572 10.0659 -8.48161 23.3163 -2.55614 -16.0615 -11.9065 48.0407 12.5307 -13.8306 36.0414 5.09292 65.9738 -49.2387 59.7015 
-9.86788 83.9918 -72.6791 3.36412 2.45889 160.862 -15.6152 -37.6291 7.53959 2.24347 41.4031 -4.00327 9.36726 37.2867 -3.58402 -25.0721 -68.6839 -6.98621 1.78974 7.85399 0.100671 -4.9646 14.1665 1.64751 12.0626 2.0785 -8.13472 -5.03302e-021 -3.88251e-019 1.21329e-020 -68.9538 -15.0226 -53.0577 -14.8369 40.7566 -103.741 6.54677 9.62745 -1.04006 17.966 -0.802549 -6.4318 66.0616 -37.986 30.2957 -10.7614 38.0424 138.218 -7.13402 10.0554 -7.13489 22.0043 1.06369 -16.9058 -11.758 47.3406 14.4626 -13.8991 39.0902 5.4935 68.0549 -50.1923 60.7778 
-10.3369 84.2122 -74.0134 4.27544 2.03712 154.957 -13.2363 -38.5597 5.89131 1.6872 40.2669 -1.68362 9.62056 36 -3.57925 -19.7051 -65.9523 -1.52978 1.85045 7.57755 -1.03429 -3.7292 13.6791 -0.699503 9.66667 4.44739 -1.75197 -5.03302e-021 -3.88251e-019 1.21329e-020 -69.5616 -20.347 -54.2175 -14.9042 38.965 -98.7461 6.54677 9.62745 -1.04006 18.4249 -0.915204 -6.88137 65.3405 -32.8332 28.8865 -11.505 36.3343 136.217 -8.52221 9.95734 -5.17046 20.5281 4.45553 -17.2908 -11.856 46.7512 16.4068 -13.7369 41.0991 5.67222 69.7898 -51.7868 60.8181 
-10.7561 84.2222 -75.2935 4.94661 1.50426 149.566 -10.9075 -39.3878 4.45254 0.662717 39.5223 1.07254 10.4024 34.5328 -3.75073 -15.1808 -63.5295 3.32813 1.95793 7.32246 -2.36447 -2.5575 13.2329 -3.41856 7.16939 6.75148 4.5489 -5.03302e-021 -3.88251e-019 1.21329e-020 -65.5943 -22.7923 -55.7059 -12.9029 31.7119 -92.5229 6.54677 9.62745 -1.04006 18.5823 -0.998918 -7.24702 64.3704 -27.3701 28.7763 -12.0001 34.5245 134.562 -9.55263 9.81651 -3.21793 18.9683 7.3132 -17.2322 -12.3456 46.3406 18.3651 -13.1104 41.9728 5.50219 70.6043 -53.3958 59.9498 
-11.1487 84.1019 -76.4558 5.35928 0.892444 144.939 -8.84203 -40.146 3.53015 -0.380148 39.0045 3.87586 11.332 33.0583 -3.95463 -11.9361 -61.3387 6.86379 2.11244 7.14301 -3.8336 -1.51257 12.912 -6.42613 4.70947 8.60135 10.5279 -5.03302e-021 -3.88251e-019 1.21329e-020 -53.9094 -20.9767 -56.3778 -8.92914 16.8651 -83.5556 6.54677 9.62745 -1.04006 18.6256 -1.0954 -7.69736 63.6181 -21.701 30.151 -12.2882 32.7385 133.7 -10.3792 9.67585 -1.6224 17.5035 9.4273 -16.8197 -13.4058 46.0968 20.3424 -11.9514 41.7892 4.9691 69.9456 -54.4504 58.2013 
-11.5454 83.9468 -77.4785 5.52454 0.236513 141.188 -7.20827 -40.8489 3.18952 -1.10337 38.5533 6.42647 12.069 31.6684 -4.07668 -10.0588 -59.2409 8.75984 2.29786 7.07367 -5.36043 -0.598431 12.7812 -9.5907 2.43562 9.68692 15.9421 -5.03302e-021 -3.88251e-019 1.21329e-020 -38.1558 -17.5339 -56.3994 -4.09694 -0.227324 -69.5612 6.54677 9.62745 -1.04006 18.7132 -1.22932 -8.31153 63.1729 -16.0537 32.7267 -12.4561 30.9349 133.831 -11.0247 9.5624 -0.516044 16.3182 10.7375 -16.1498 -15.153 45.9666 22.3412 -10.3314 40.6886 4.15539 67.5303 -54.6288 55.5546 
-11.9742 83.8269 -78.3801 5.46478 -0.429039 138.275 -6.08535 -41.5178 3.3045 -1.39753 38.0901 8.61055 12.4661 30.337 -4.07355 -9.28926 -57.0239 9.17286 2.50516 7.12368 -6.83961 0.220761 12.862 -12.7106 0.483083 9.86061 20.5367 -5.03302e-021 -3.88251e-019 1.21329e-020 -22.5182 -14.3047 -55.7418 1.50266 -13.8941 -50.9813 6.54677 9.62745 -1.04006 18.9115 -1.39538 -9.03806 62.8926 -10.7012 35.9394 -12.5724 29.0479 134.92 -11.4129 9.4923 0.104304 15.5099 11.3139 -15.2757 -17.5705 45.9117 24.3795 -8.37038 38.7837 3.17684 63.454 -53.8673 52.0621 
-12.4514 83.7692 -79.2 5.20179 -1.06033 136.053 -5.46564 -42.1851 3.66714 -1.36277 37.6237 10.4782 12.5655 28.971 -3.96166 -9.1777 -54.4674 8.56512 2.73187 7.28057 -8.14738 0.971195 13.1304 -15.5171 -1.04117 9.17859 24.0729 -5.03302e-021 -3.88251e-019 1.21329e-020 -11.243 -12.7771 -54.3523 6.39332 -19.494 -32.3141 6.54677 9.62745 -1.04006 19.1924 -1.56413 -9.73633 62.5795 -5.96298 39.1755 -12.6659 27.1084 136.699 -11.48 9.47008 0.31566 15.0517 11.3075 -14.214 -20.5003 45.935 26.521 -6.17334 36.1241 2.14011 58.1705 -52.2813 47.9344 
-12.9737 83.7658 -79.974 4.75887 -1.59153 134.345 -5.28617 -42.8686 4.07132 -1.21822 37.2086 12.1507 12.512 27.5268 -3.79224 -9.2724 -51.5223 7.49738 2.96258 7.51686 -9.15962 1.62571 13.5359 -17.7228 -2.07295 7.88567 26.3869 -5.03302e-021 -3.88251e-019 1.21329e-020 -5.43898 -12.9137 -52.5884 8.67895 -19.0738 -19.1015 6.54677 9.62745 -1.04006 19.477 -1.69847 -10.2582 62.1188 -2.1936 41.9395 -12.7371 25.2867 138.752 -11.2428 9.48899 0.212667 14.8283 10.9022 -13.0002 -23.6847 46.063 28.8867 -3.82487 32.7283 1.13847 52.3924 -50.1219 43.5447 
-13.5149 83.7957 -80.7171 4.17294 -1.93605 133.022 -5.47504 -43.5395 4.36039 -1.18669 36.8996 13.7078 12.4555 26.0947 -3.62528 -9.30173 -48.4518 6.42173 3.15556 7.79704 -9.78214 2.10325 14.0254 -19.1031 -2.60024 6.34551 27.433 -5.03302e-021 -3.88251e-019 1.21329e-020 -3.98469 -13.6961 -51.1168 9.66184 -18.0284 -12.7751 6.54677 9.62745 -1.04006 19.6924 -1.7731 -10.5217 61.5423 0.287193 43.8966 -12.7729 23.8504 140.669 -10.7986 9.5357 -0.123169 14.7174 10.2727 -11.7476 -26.8252 46.3088 31.6238 -1.41369 28.6554 0.259187 46.9168 -47.777 39.3313 
-14.0302 83.8432 -81.4181 3.5065 -2.0085 132.08 -5.99793 -44.1088 4.45418 -1.38341 36.7252 15.0894 12.4733 24.8922 -3.50529 -9.25225 -45.8077 5.5572 3.2529 8.08427 -9.98057 2.31556 14.5548 -19.5726 -2.65472 4.93662 27.2767 -5.03302e-021 -3.88251e-019 1.21329e-020 -5.72674 -14.3019 -50.3859 11.0595 -19.2262 -12.7583 6.54677 9.62745 -1.04006 19.8113 -1.78849 -10.5483 60.9978 1.2912 44.8478 -12.7549 23.0642 142.146 -10.2912 9.59387 -0.603912 14.6711 9.54616 -10.6596 -29.631 46.6492 34.8363 0.953471 24.0619 -0.423829 42.3938 -45.7161 35.644 
-14.468 83.9053 -82.0475 2.84303 -1.75982 131.646 -6.88492 -44.4437 4.34581 -1.75468 36.6843 16.0603 12.5373 24.1943 -3.45073 -9.29866 -44.2672 4.90903 3.20688 8.34479 -9.79212 2.22514 15.0854 -19.2132 -2.28385 3.9505 26.0497 -5.03302e-021 -3.88251e-019 1.21329e-020 -10.1068 -14.5923 -50.4715 12.3077 -22.1175 -18.8558 6.54677 9.62745 -1.04006 19.8697 -1.77494 -10.466 60.6418 0.825953 44.7267 -12.6643 23.079 143.011 -9.88494 9.64578 -1.09533 14.7531 8.77239 -9.98049 -31.8563 47.0318 38.5042 3.16965 19.1993 -0.871098 39.1311 -44.3026 32.6568 
-14.7849 83.9845 -82.5705 2.26378 -1.20332 131.935 -8.21882 -44.4058 4.06745 -2.09535 36.7598 16.2636 12.5425 24.2477 -3.45776 -9.67224 -44.4118 4.3628 3.0015 8.55154 -9.3123 1.87057 15.5794 -18.2412 -1.52037 3.52304 23.9024 -5.03302e-021 -3.88251e-019 1.21329e-020 -16.9358 -14.9634 -51.2014 11.3877 -23.8399 -30.8157 6.54677 9.62745 -1.04006 19.9678 -1.78581 -10.4798 60.5256 -0.910774 43.6238 -12.4862 23.8599 143.217 -9.73413 9.67524 -1.42033 15.112 7.91629 -9.90924 -33.3248 47.3895 42.4191 5.15986 14.3731 -1.09034 37.0139 -43.5591 30.3806 
-14.9621 84.0723 -82.9583 1.82446 -0.41464 133.16 -10.0804 -43.8916 3.65152 -2.13415 36.9388 15.3466 12.3736 25.176 -3.50605 -10.5599 -46.495 3.75636 2.65943 8.69021 -8.66497 1.34463 16.0061 -16.9315 -0.371731 3.61953 20.9782 -5.03302e-021 -3.88251e-019 1.21329e-020 -25.8102 -15.6805 -52.3306 7.68856 -21.4466 -46.4412 6.54677 9.62745 -1.04006 20.2499 -1.88238 -10.809 60.5598 -3.60164 41.7725 -12.2118 25.2003 142.838 -9.93626 9.67049 -1.42447 15.9091 6.87343 -10.5176 -33.9457 47.6454 46.1555 6.89266 9.91575 -1.12978 35.5613 -43.0989 28.6934 
-15.0187 84.1368 -83.1964 1.55126 0.49428 135.437 -12.4779 -42.8579 3.1198 -1.63613 37.2216 13.1055 11.9649 26.8952 -3.55962 -12.0667 -50.2681 2.89553 2.23975 8.76662 -7.97032 0.748595 16.354 -15.5352 1.15943 4.07331 17.4133 -5.03302e-021 -3.88251e-019 1.21329e-020 -35.6705 -16.3667 -53.6073 2.99547 -14.5577 -61.6386 6.54677 9.62745 -1.04006 20.8512 -2.11581 -11.6044 60.5801 -6.91414 39.4744 -11.8423 26.8276 142.058 -10.4964 9.62488 -1.05018 17.2346 5.50966 -11.7002 -33.7161 47.7197 49.1201 8.35396 6.18934 -1.06201 34.1761 -42.3899 27.3616 
